<?xml version="1.0" encoding="UTF-8" ?>
<!DOCTYPE svg PUBLIC "-//W3C//DTD SVG 1.1//EN" "http://www.w3.org/Graphics/SVG/1.1/DTD/svg11.dtd">
<svg width="500pt" height="381pt" viewBox="0 0 500 381" version="1.1" xmlns="http://www.w3.org/2000/svg">
<g id="#ffffffff">
<path fill="#ffffff" opacity="1.00" d=" M 0.00 0.00 L 264.49 0.00 C 233.14 1.87 201.92 7.46 172.37 18.26 C 171.96 12.39 173.87 6.77 175.00 1.09 C 170.82 6.74 166.45 12.58 165.06 19.64 C 153.93 12.69 141.20 8.47 128.09 7.61 C 138.29 12.15 149.19 16.49 156.79 25.01 C 152.44 27.15 148.39 29.92 143.93 31.81 C 131.10 25.23 116.32 21.91 101.96 24.41 C 85.92 26.41 71.21 33.55 57.09 41.00 C 57.66 44.28 59.49 47.11 61.00 50.01 C 73.68 72.97 91.93 92.36 112.04 108.98 C 115.39 111.46 114.17 116.21 115.04 119.78 C 117.56 150.59 127.17 182.37 149.15 204.97 C 148.51 191.43 151.02 176.08 162.01 166.93 C 172.17 158.26 186.46 158.17 199.00 159.86 C 222.93 164.29 244.79 176.58 263.56 191.75 C 245.77 224.24 233.40 259.71 226.43 296.07 C 220.95 288.05 215.00 277.26 204.08 276.81 C 193.03 278.59 187.67 290.14 184.63 299.71 C 181.58 305.61 182.54 312.34 181.85 318.71 C 160.21 319.12 138.56 319.73 116.97 321.26 C 114.64 321.63 112.51 320.72 110.70 319.34 C 99.77 323.77 88.08 318.71 76.80 320.54 C 83.28 320.68 89.72 321.39 96.10 322.56 C 88.10 323.69 80.01 323.46 71.98 322.78 C 49.35 322.30 26.67 322.51 4.12 324.57 C 3.26 324.79 2.49 325.21 1.80 325.82 C 23.86 330.70 46.29 333.63 68.66 336.58 C 83.60 345.63 101.11 349.09 118.19 351.67 C 118.55 346.42 124.31 346.08 128.34 345.45 C 147.95 343.43 167.67 345.37 187.30 345.19 C 187.23 344.42 187.07 342.88 186.99 342.11 C 190.43 350.90 195.45 359.09 201.79 366.08 C 195.12 362.73 187.31 363.76 180.13 364.20 C 176.51 364.70 170.35 365.39 171.23 370.44 C 185.21 377.34 201.11 378.87 216.44 379.87 C 216.72 380.15 217.30 380.72 217.58 381.00 L 0.00 381.00 L 0.00 0.00 Z" />
<path fill="#ffffff" opacity="1.00" d=" M 300.58 0.00 L 500.00 0.00 L 500.00 381.00 L 382.56 381.00 C 383.08 380.73 384.12 380.18 384.64 379.90 C 408.47 380.39 432.35 379.53 456.11 377.30 C 464.85 376.30 473.91 376.02 482.17 372.66 C 470.25 367.88 456.70 370.11 444.36 367.06 C 457.93 361.89 471.34 355.09 481.53 344.53 C 485.86 339.81 490.49 333.85 490.10 327.17 C 485.52 316.66 474.28 311.32 464.75 306.03 C 448.96 298.55 431.78 292.28 414.04 293.20 C 407.92 293.44 400.87 296.16 398.76 302.44 C 396.96 309.85 399.55 317.35 402.74 323.98 C 395.06 320.56 386.44 323.48 378.40 321.97 C 378.01 315.87 378.89 309.41 376.16 303.73 C 372.67 291.97 365.63 278.32 352.12 276.51 C 341.46 278.58 336.12 289.13 331.25 297.73 C 323.79 261.27 314.40 224.67 297.66 191.25 C 316.16 175.89 336.92 162.48 360.29 156.00 C 371.89 152.98 384.56 151.54 396.02 155.87 C 404.22 158.82 410.82 166.11 412.40 174.75 C 414.74 185.42 410.89 196.04 407.10 205.87 C 418.50 199.04 427.96 188.89 433.27 176.65 C 441.83 158.00 440.94 136.99 441.59 116.96 C 441.86 114.74 441.22 111.89 443.37 110.42 C 466.22 91.33 487.71 69.08 499.99 41.60 C 493.94 37.47 487.15 34.58 480.54 31.50 C 479.01 40.44 466.79 43.86 460.62 37.44 C 456.98 34.23 458.08 28.98 459.68 25.02 C 445.57 22.43 430.53 23.36 417.55 29.81 C 415.75 30.55 414.06 31.88 412.06 31.90 C 379.31 9.95 339.31 2.39 300.58 0.00 Z" />
<path fill="#ffffff" opacity="1.00" d=" M 320.19 51.00 C 330.69 48.54 342.09 50.89 350.99 56.92 C 363.79 65.51 370.69 81.78 368.27 96.97 C 366.13 111.99 354.88 125.38 340.31 129.76 C 329.45 133.16 317.15 131.46 307.60 125.28 C 294.49 117.19 287.11 101.11 289.11 85.89 C 290.80 69.30 303.81 54.47 320.19 51.00 M 348.54 63.82 C 342.07 69.50 341.61 78.99 340.73 86.99 C 340.57 95.49 341.34 104.41 345.37 112.04 C 346.57 114.60 349.34 117.11 352.36 116.13 C 356.30 113.63 357.80 108.83 359.03 104.59 C 361.57 93.17 361.52 80.84 357.30 69.83 C 355.94 66.44 352.81 61.68 348.54 63.82 Z" />
<path fill="#ffffff" opacity="1.00" d=" M 259.45 90.48 C 261.55 90.39 263.65 90.31 265.75 90.24 C 266.17 111.16 248.12 130.64 226.98 130.60 C 207.32 131.81 188.87 115.79 186.39 96.43 C 204.12 95.05 221.83 93.55 239.56 92.22 C 239.97 99.24 241.05 106.78 245.49 112.49 C 247.33 115.14 251.41 114.95 253.31 112.48 C 258.06 106.23 259.02 98.08 259.45 90.48 Z" />
<path fill="#ffffff" opacity="1.00" d=" M 397.86 336.36 C 400.97 336.21 404.16 336.28 407.14 335.20 C 410.34 344.82 411.58 357.03 403.97 364.96 C 398.31 367.96 391.65 365.49 385.86 367.93 C 387.09 369.08 388.32 370.23 389.55 371.40 C 383.54 373.02 377.07 373.69 370.96 372.27 C 367.27 370.61 364.04 368.00 360.11 366.83 C 365.45 360.46 369.57 353.15 372.83 345.52 C 375.52 346.06 378.45 346.52 380.31 348.77 C 379.63 349.82 378.97 350.88 378.31 351.94 C 384.51 351.48 390.67 350.36 396.62 348.57 C 398.99 347.75 402.14 346.08 401.84 343.14 C 400.69 340.78 398.89 338.79 397.86 336.36 Z" />
</g>
<g id="#191919ff">
<path fill="#191919" opacity="1.00" d=" M 264.49 0.00 L 300.58 0.00 C 339.31 2.39 379.31 9.95 412.06 31.90 C 414.06 31.88 415.75 30.55 417.55 29.81 C 430.53 23.36 445.57 22.43 459.68 25.02 C 458.08 28.98 456.98 34.23 460.62 37.44 C 466.79 43.86 479.01 40.44 480.54 31.50 C 487.15 34.58 493.94 37.47 499.99 41.60 C 487.71 69.08 466.22 91.33 443.37 110.42 C 441.22 111.89 441.86 114.74 441.59 116.96 C 440.94 136.99 441.83 158.00 433.27 176.65 C 427.96 188.89 418.50 199.04 407.10 205.87 C 410.89 196.04 414.74 185.42 412.40 174.75 C 410.82 166.11 404.22 158.82 396.02 155.87 C 384.56 151.54 371.89 152.98 360.29 156.00 C 336.92 162.48 316.16 175.89 297.66 191.25 C 314.40 224.67 323.79 261.27 331.25 297.73 C 336.12 289.13 341.46 278.58 352.12 276.51 C 365.63 278.32 372.67 291.97 376.16 303.73 C 379.04 317.63 378.30 332.33 372.83 345.52 C 369.57 353.15 365.45 360.46 360.11 366.83 C 359.22 367.90 358.58 369.14 358.07 370.44 C 372.93 374.74 391.68 376.00 403.97 364.96 C 411.58 357.03 410.34 344.82 407.14 335.20 C 405.93 331.36 404.39 327.64 402.74 323.98 C 399.55 317.35 396.96 309.85 398.76 302.44 C 400.87 296.16 407.92 293.44 414.04 293.20 C 431.78 292.28 448.96 298.55 464.75 306.03 C 474.28 311.32 485.52 316.66 490.10 327.17 C 490.49 333.85 485.86 339.81 481.53 344.53 C 471.34 355.09 457.93 361.89 444.36 367.06 C 425.52 374.30 405.44 377.30 385.43 378.94 C 329.53 381.02 273.51 380.01 217.58 381.00 L 217.58 381.00 C 217.30 380.72 216.72 380.15 216.44 379.87 C 211.54 375.29 206.24 371.14 201.79 366.08 C 195.45 359.09 190.43 350.90 186.99 342.11 C 181.95 328.57 181.30 313.73 184.63 299.71 C 187.67 290.14 193.03 278.59 204.08 276.81 C 215.00 277.26 220.95 288.05 226.43 296.07 C 233.40 259.71 245.77 224.24 263.56 191.75 C 244.79 176.58 222.93 164.29 199.00 159.86 C 186.46 158.17 172.17 158.26 162.01 166.93 C 151.02 176.08 148.51 191.43 149.15 204.97 C 127.17 182.37 117.56 150.59 115.04 119.78 C 114.17 116.21 115.39 111.46 112.04 108.98 C 91.93 92.36 73.68 72.97 61.00 50.01 C 59.49 47.11 57.66 44.28 57.09 41.00 C 71.21 33.55 85.92 26.41 101.96 24.41 C 116.32 21.91 131.10 25.23 143.93 31.81 C 148.39 29.92 152.44 27.15 156.79 25.01 C 149.19 16.49 138.29 12.15 128.09 7.61 C 141.20 8.47 153.93 12.69 165.06 19.64 C 166.45 12.58 170.82 6.74 175.00 1.09 C 173.87 6.77 171.96 12.39 172.37 18.26 C 201.92 7.46 233.14 1.87 264.49 0.00 M 320.19 51.00 C 303.81 54.47 290.80 69.30 289.11 85.89 C 287.11 101.11 294.49 117.19 307.60 125.28 C 317.15 131.46 329.45 133.16 340.31 129.76 C 354.88 125.38 366.13 111.99 368.27 96.97 C 370.69 81.78 363.79 65.51 350.99 56.92 C 342.09 50.89 330.69 48.54 320.19 51.00 M 259.45 90.48 C 259.02 98.08 258.06 106.23 253.31 112.48 C 251.41 114.95 247.33 115.14 245.49 112.49 C 241.05 106.78 239.97 99.24 239.56 92.22 C 221.83 93.55 204.12 95.05 186.39 96.43 C 188.87 115.79 207.32 131.81 226.98 130.60 C 248.12 130.64 266.17 111.16 265.75 90.24 C 263.65 90.31 261.55 90.39 259.45 90.48 M 269.38 122.57 C 267.04 123.13 264.07 125.47 265.93 128.05 C 268.79 133.63 273.73 140.48 280.54 140.51 C 282.66 134.83 289.68 131.88 290.54 125.43 C 285.37 119.68 276.21 123.19 269.38 122.57 Z" />
<path fill="#191919" opacity="1.00" d=" M 348.54 63.82 C 352.81 61.68 355.94 66.44 357.30 69.83 C 361.52 80.84 361.57 93.17 359.03 104.59 C 357.80 108.83 356.30 113.63 352.36 116.13 C 349.34 117.11 346.57 114.60 345.37 112.04 C 341.34 104.41 340.57 95.49 340.73 86.99 C 341.61 78.99 342.07 69.50 348.54 63.82 Z" />
</g>
<g id="#510e0dff">
<path fill="#510e0d" opacity="1.00" d=" M 269.38 122.57 C 276.21 123.19 285.37 119.68 290.54 125.43 C 289.68 131.88 282.66 134.83 280.54 140.51 C 273.73 140.48 268.79 133.63 265.93 128.05 C 264.07 125.47 267.04 123.13 269.38 122.57 M 268.05 126.28 C 270.37 130.66 273.18 135.31 277.86 137.46 C 281.54 133.78 288.96 130.97 287.41 124.61 C 281.04 124.71 273.72 122.60 268.05 126.28 Z" />
</g>
<g id="#990102ff">
<path fill="#990102" opacity="1.00" d=" M 268.05 126.28 C 273.72 122.60 281.04 124.71 287.41 124.61 C 288.96 130.97 281.54 133.78 277.86 137.46 C 273.18 135.31 270.37 130.66 268.05 126.28 Z" />
</g>
<g id="#ccccccff">
<path fill="#cccccc" opacity="1.00" d=" M 181.85 318.71 C 182.54 312.34 181.58 305.61 184.63 299.71 C 181.30 313.73 181.95 328.57 186.99 342.11 C 187.07 342.88 187.23 344.42 187.30 345.19 C 167.67 345.37 147.95 343.43 128.34 345.45 C 124.31 346.08 118.55 346.42 118.19 351.67 C 101.11 349.09 83.60 345.63 68.66 336.58 C 46.29 333.63 23.86 330.70 1.80 325.82 C 2.49 325.21 3.26 324.79 4.12 324.57 C 26.67 322.51 49.35 322.30 71.98 322.78 C 80.01 323.46 88.10 323.69 96.10 322.56 C 89.72 321.39 83.28 320.68 76.80 320.54 C 88.08 318.71 99.77 323.77 110.70 319.34 C 112.51 320.72 114.64 321.63 116.97 321.26 C 138.56 319.73 160.21 319.12 181.85 318.71 Z" />
<path fill="#cccccc" opacity="1.00" d=" M 376.16 303.73 C 378.89 309.41 378.01 315.87 378.40 321.97 C 386.44 323.48 395.06 320.56 402.74 323.98 C 404.39 327.64 405.93 331.36 407.14 335.20 C 404.16 336.28 400.97 336.21 397.86 336.36 C 398.89 338.79 400.69 340.78 401.84 343.14 C 402.14 346.08 398.99 347.75 396.62 348.57 C 390.67 350.36 384.51 351.48 378.31 351.94 C 378.97 350.88 379.63 349.82 380.31 348.77 C 378.45 346.52 375.52 346.06 372.83 345.52 C 378.30 332.33 379.04 317.63 376.16 303.73 Z" />
<path fill="#cccccc" opacity="1.00" d=" M 171.23 370.44 C 170.35 365.39 176.51 364.70 180.13 364.20 C 187.31 363.76 195.12 362.73 201.79 366.08 C 206.24 371.14 211.54 375.29 216.44 379.87 C 201.11 378.87 185.21 377.34 171.23 370.44 Z" />
<path fill="#cccccc" opacity="1.00" d=" M 385.86 367.93 C 391.65 365.49 398.31 367.96 403.97 364.96 C 391.68 376.00 372.93 374.74 358.07 370.44 C 358.58 369.14 359.22 367.90 360.11 366.83 C 364.04 368.00 367.27 370.61 370.96 372.27 C 377.07 373.69 383.54 373.02 389.55 371.40 C 388.32 370.23 387.09 369.08 385.86 367.93 Z" />
<path fill="#cccccc" opacity="1.00" d=" M 385.43 378.94 C 405.44 377.30 425.52 374.30 444.36 367.06 C 456.70 370.11 470.25 367.88 482.17 372.66 C 473.91 376.02 464.85 376.30 456.11 377.30 C 432.35 379.53 408.47 380.39 384.64 379.90 L 385.43 378.94 Z" />
</g>
<g id="#e9e9e9ff">
<path fill="#e9e9e9" opacity="1.00" d=" M 217.58 381.00 C 273.51 380.01 329.53 381.02 385.43 378.94 L 384.64 379.90 C 384.12 380.18 383.08 380.73 382.56 381.00 L 217.58 381.00 Z" />
</g>
</svg>
